<?xml version="1.0" standalone="no"?>
<!DOCTYPE svg PUBLIC "-//W3C//DTD SVG 20010904//EN"
 "http://www.w3.org/TR/2001/REC-SVG-20010904/DTD/svg10.dtd">
<svg version="1.0" xmlns="http://www.w3.org/2000/svg"
 width="452.000000pt" height="132.000000pt" viewBox="0 0 452.000000 132.000000"
 preserveAspectRatio="xMidYMid meet">

<g transform="translate(0.000000,132.000000) scale(0.100000,-0.100000)"
fill="#af1834" stroke="none">
<path d="M560 1099 c-123 -24 -253 -125 -309 -241 -145 -299 74 -648 408 -648
48 0 144 25 201 52 99 48 202 182 229 299 72 313 -210 600 -529 538z m218 -98
c65 -33 118 -87 149 -149 59 -120 28 -272 -74 -361 -194 -172 -496 -47 -511
211 -9 142 78 271 211 314 61 20 171 13 225 -15z"/>
<path d="M567 924 c-165 -52 -207 -280 -72 -392 111 -91 285 -56 351 70 24 45
20 48 -76 48 -49 0 -90 -4 -90 -8 0 -5 -15 -17 -33 -27 -121 -65 -221 113
-105 185 44 28 91 20 133 -20 29 -28 35 -30 112 -30 l82 0 -10 32 c-32 112
-172 181 -292 142z"/>
<path d="M3099 1043 l-69 -66 0 -323 0 -322 69 -61 69 -61 114 0 114 0 67 68
67 68 0 315 0 316 -69 66 -69 67 -112 0 -112 0 -69 -67z m226 -388 l0 -280
-47 -3 -48 -3 0 286 0 286 48 -3 47 -3 0 -280z"/>
<path d="M3610 660 l0 -450 103 0 102 0 -2 447 -3 448 -100 3 -100 3 0 -451z"/>
<path d="M3910 660 l0 -450 205 0 206 0 -3 103 -3 102 -92 1 c-51 1 -97 2
-103 3 -6 1 -10 123 -10 346 l0 345 -100 0 -100 0 0 -450z"/>
<path d="M1348 1035 l-68 -64 0 -314 0 -315 74 -66 74 -66 109 0 109 0 67 68
67 68 0 122 0 122 -100 0 -100 0 0 -111 0 -110 -47 3 -48 3 0 280 0 280 47 3
47 3 3 -88 3 -88 85 -1 c47 0 91 2 98 4 8 3 12 34 12 107 l0 103 -69 61 -69
61 -113 0 -114 -1 -67 -64z"/>
<path d="M1860 722 l0 -378 68 -67 68 -67 120 0 120 0 62 63 62 63 0 382 0
382 -100 0 -100 0 0 -366 0 -365 -47 3 -48 3 -3 363 -2 362 -100 0 -100 0 0
-378z"/>
<path d="M2460 655 l0 -445 100 0 100 0 0 180 0 180 45 0 45 0 0 -180 0 -180
100 0 100 0 0 174 0 174 -56 49 -56 49 56 43 56 43 0 114 0 114 -67 65 -68 65
-177 0 -178 0 0 -445z m288 183 l-3 -103 -40 0 -40 0 -3 103 -3 102 46 0 46 0
-3 -102z"/>
</g>
</svg>
