<svg width="19" height="18" viewBox="0 0 19 18" fill="none" xmlns="http://www.w3.org/2000/svg">
<path d="M1.8077 0.500031L3.55768 4.00001H6.55768L4.8077 0.500031H6.8077L8.55768 4.00001H11.5577L9.8077 0.500031H11.8077L13.5577 4.00001H16.5577L14.8077 0.500031H17.1923C17.6974 0.500031 18.125 0.675031 18.475 1.02503C18.825 1.37503 19 1.8026 19 2.30773V15.6923C19 16.1974 18.825 16.625 18.475 16.975C18.125 17.325 17.6974 17.5 17.1923 17.5H1.8077C1.30257 17.5 0.875 17.325 0.525 16.975C0.175 16.625 0 16.1974 0 15.6923V2.30773C0 1.8026 0.175 1.37503 0.525 1.02503C0.875 0.675031 1.30257 0.500031 1.8077 0.500031ZM1.49998 5.49998V15.6923C1.49998 15.782 1.52883 15.8558 1.58653 15.9135C1.64423 15.9712 1.71795 16 1.8077 16H17.1923C17.282 16 17.3557 15.9712 17.4134 15.9135C17.4711 15.8558 17.5 15.782 17.5 15.6923V5.49998H1.49998ZM5.84615 14.5577H13.1538V14.2C13.1538 13.5692 12.8144 13.0545 12.1355 12.6558C11.4567 12.2571 10.5782 12.0577 9.49998 12.0577C8.42177 12.0577 7.54326 12.2571 6.86443 12.6558C6.18558 13.0545 5.84615 13.5692 5.84615 14.2V14.5577ZM9.49998 10.75C9.98588 10.75 10.399 10.5798 10.7394 10.2394C11.0798 9.89904 11.25 9.48591 11.25 9.00001C11.25 8.51411 11.0798 8.10097 10.7394 7.76061C10.399 7.42022 9.98588 7.25003 9.49998 7.25003C9.01408 7.25003 8.60094 7.42022 8.26058 7.76061C7.92019 8.10097 7.75 8.51411 7.75 9.00001C7.75 9.48591 7.92019 9.89904 8.26058 10.2394C8.60094 10.5798 9.01408 10.75 9.49998 10.75Z" fill="#5E6FEC"/>
</svg>
