<svg width="20" height="14" viewBox="0 0 20 14" fill="none" xmlns="http://www.w3.org/2000/svg">
<path d="M12.8161 14C10.8596 14 9.20243 13.3211 7.84456 11.9632C6.48669 10.6054 5.80776 8.94818 5.80776 6.99167C5.80776 5.04979 6.48669 3.39904 7.84456 2.03943C9.20243 0.679809 10.8596 0 12.8161 0C14.758 0 16.4087 0.679809 17.7684 2.03943C19.128 3.39904 19.8078 5.04979 19.8078 6.99167C19.8078 8.94818 19.128 10.6054 17.7684 11.9632C16.4087 13.3211 14.758 14 12.8161 14ZM12.8078 13C14.4745 13 15.8911 12.4167 17.0578 11.25C18.2244 10.0833 18.8078 8.66667 18.8078 7C18.8078 5.33333 18.2244 3.91667 17.0578 2.75C15.8911 1.58333 14.4745 1 12.8078 1C11.1411 1 9.72445 1.58333 8.55778 2.75C7.39112 3.91667 6.80778 5.33333 6.80778 7C6.80778 8.66667 7.39112 10.0833 8.55778 11.25C9.72445 12.4167 11.1411 13 12.8078 13ZM15.2751 10.2058L15.9886 9.4923L13.3078 6.81152V3.3077H12.3078V7.21348L15.2751 10.2058ZM1.19238 3.5V2.5H4.80776V3.5H1.19238ZM0.192383 7.5V6.5H4.80776V7.5H0.192383ZM1.19238 11.5V10.5H4.80776V11.5H1.19238Z" fill="#1C1B1F"/>
</svg>
