<svg width="32" height="32" viewBox="0 0 32 32" fill="none" xmlns="http://www.w3.org/2000/svg">
<path fill-rule="evenodd" clip-rule="evenodd" d="M11.0769 5.76071L15.3846 4.3782V17.747C11.8314 17.4347 11.0769 14.4599 11.0769 13.6297V5.76071ZM20.9231 13.6297C20.9231 14.4599 20.1686 17.4347 16.6154 17.747V4.3782L20.9231 5.76071V13.6297ZM16 18.963C20.6498 18.963 22.1538 15.3702 22.1538 13.6297V5.33346C22.1538 5.07864 21.9846 4.85227 21.7329 4.77168L16.1945 2.99391C16.0683 2.95302 15.9317 2.95302 15.8055 2.99391L10.2671 4.77168C10.0154 4.85227 9.84615 5.07864 9.84615 5.33346V13.6297C9.84615 15.3702 11.3502 18.963 16 18.963ZM8 4.00132L16 1.22266L24 4.00132V13.0371C24 14.8445 23.4228 20.7408 16 20.7408C8.09046 20.7408 8 13.3518 8 13.0371V4.00132ZM16 21.926C24.7852 21.926 25.2308 14.5216 25.2308 13.0371V3.58472C25.2308 3.33524 25.0677 3.11184 24.824 3.0271L16.2086 0.035111C16.0738 -0.0117036 15.9262 -0.0117036 15.7914 0.035111L7.176 3.0271C6.93231 3.11184 6.76923 3.33524 6.76923 3.58472V13.0371C6.76923 16.1115 8.69846 21.926 16 21.926ZM29.2308 26.6667C28.3822 26.6667 27.6923 26.0024 27.6923 25.1852C27.6923 24.3686 28.3822 23.7037 29.2308 23.7037C30.0794 23.7037 30.7692 24.3686 30.7692 25.1852C30.7692 26.0024 30.0794 26.6667 29.2308 26.6667ZM17.5385 29.3333C17.5385 30.1505 16.8486 30.8148 16 30.8148C15.1514 30.8148 14.4615 30.1505 14.4615 29.3333C14.4615 28.5168 15.1514 27.8519 16 27.8519C16.8486 27.8519 17.5385 28.5168 17.5385 29.3333ZM2.76923 26.6667C1.92062 26.6667 1.23077 26.0024 1.23077 25.1852C1.23077 24.3686 1.92062 23.7037 2.76923 23.7037C3.61785 23.7037 4.30769 24.3686 4.30769 25.1852C4.30769 26.0024 3.61785 26.6667 2.76923 26.6667ZM29.2308 22.5186C28.5311 22.5186 27.8991 22.7781 27.4111 23.1912L25.52 21.3672C27.4738 19.7992 29.1514 17.7731 30.3631 15.3903L29.2572 14.8688C26.5274 20.2359 21.3237 23.7037 16 23.7037C10.5514 23.7037 4.89723 20.0706 2.25169 14.8688L1.14585 15.3903C2.20369 17.4691 3.86523 19.5556 5.98277 21.2415L4.192 22.9097C3.77477 22.6667 3.29169 22.5186 2.76923 22.5186C1.24246 22.5186 0 23.715 0 25.1852C0 26.656 1.24246 27.8519 2.76923 27.8519C4.296 27.8519 5.53846 26.656 5.53846 25.1852C5.53846 24.6471 5.36923 24.1476 5.08369 23.728L6.96923 21.9716C9.34585 23.6149 12.2105 24.7319 15.3846 24.8628V26.7384C14.1538 27.0092 13.2308 28.0676 13.2308 29.3333C13.2308 30.8042 14.4732 32 16 32C17.5268 32 18.7692 30.8042 18.7692 29.3333C18.7692 28.0676 17.8462 27.0092 16.6154 26.7384V24.8646C19.4111 24.7372 22.1465 23.7541 24.5397 22.0996L26.6763 24.1594C26.5385 24.4759 26.4615 24.822 26.4615 25.1852C26.4615 26.656 27.704 27.8519 29.2308 27.8519C30.7575 27.8519 32 26.656 32 25.1852C32 23.715 30.7575 22.5186 29.2308 22.5186Z" fill="black"/>
</svg>
