<svg width="32" height="32" viewBox="0 0 32 32" fill="none" xmlns="http://www.w3.org/2000/svg">
<g id="Menu Icon/dashboard">
<path id="Vector" d="M21.3333 12L16 20M16 19.9733V20.1066M28 17.3333C27.9973 19.1248 27.5935 20.8929 26.8183 22.5079C26.0431 24.123 24.9161 25.544 23.52 26.6666H8.47999C6.89875 25.3951 5.66576 23.7433 4.8963 21.8658C4.12684 19.9882 3.84603 17.9463 4.08014 15.9307C4.31424 13.9152 5.0556 11.9919 6.23492 10.3407C7.41424 8.68954 8.99299 7.36436 10.8236 6.48908C12.6542 5.61379 14.6768 5.21699 16.7024 5.33576C18.728 5.45454 20.6905 6.08501 22.4062 7.16824C24.122 8.25147 25.535 9.75208 26.5133 11.5298C27.4915 13.3075 28.003 15.3042 28 17.3333Z" stroke="black" stroke-width="1.5" stroke-linecap="round" stroke-linejoin="round"/>
</g>
</svg>
