<svg width="32" height="32" viewBox="0 0 32 32" fill="none" xmlns="http://www.w3.org/2000/svg">
<g id="Menu Icon/findings">
<path id="Vector" d="M18.6667 12L20 13.3333L22.6667 10.6667M13.3333 12H9.33333M13.3333 20H9.33333M18.6667 20L20 21.3333L22.6667 18.6667M28 5.33333V26.6667C28 27.0203 27.8595 27.3594 27.6095 27.6095C27.3594 27.8595 27.0203 28 26.6667 28H5.33333C4.97971 28 4.64057 27.8595 4.39052 27.6095C4.14048 27.3594 4 27.0203 4 26.6667V5.33333C4 4.97971 4.14048 4.64057 4.39052 4.39052C4.64057 4.14048 4.97971 4 5.33333 4H26.6667C27.0203 4 27.3594 4.14048 27.6095 4.39052C27.8595 4.64057 28 4.97971 28 5.33333Z" stroke="black" stroke-width="1.5" stroke-linecap="round" stroke-linejoin="round"/>
</g>
</svg>
