<svg width="40" height="40" viewBox="0 0 40 40" fill="none" xmlns="http://www.w3.org/2000/svg">
<path d="M38 38.752H2C1.78783 38.752 1.58434 38.6677 1.43431 38.5177C1.28429 38.3677 1.2 38.1642 1.2 37.952V35.552C1.19759 31.4747 2.56557 27.5149 5.08424 24.3085C7.60291 21.1021 11.1261 18.8353 15.088 17.872C15.2825 17.8275 15.4864 17.853 15.664 17.944C16.9914 18.6687 18.4796 19.0485 19.992 19.0485C21.5044 19.0485 22.9926 18.6687 24.32 17.944C24.494 17.8507 24.6963 17.8251 24.888 17.872C28.8557 18.831 32.3853 21.097 34.9088 24.3055C37.4323 27.5139 38.8029 31.4781 38.8 35.56V37.96C38.7979 38.1708 38.7127 38.3722 38.5629 38.5205C38.4131 38.6688 38.2108 38.752 38 38.752ZM2.8 37.152H37.2V35.552C37.2011 31.8827 35.984 28.3169 33.7399 25.4139C31.4957 22.5109 28.3513 20.4351 24.8 19.512C23.3096 20.2584 21.6668 20.6499 20 20.656C18.3321 20.6588 16.6873 20.2668 15.2 19.512C11.6481 20.4367 8.50349 22.514 6.25937 25.4184C4.01525 28.3227 2.79853 31.8897 2.8 35.56V37.152Z" fill="black"/>
<path d="M20 20.6C18.3505 20.606 16.7264 20.1931 15.28 19.4C13.7894 18.5646 12.5458 17.3505 11.6749 15.8804C10.804 14.4102 10.3368 12.7362 10.3204 11.0275C10.3041 9.31885 10.7392 7.63617 11.5818 6.14962C12.4244 4.66307 13.6445 3.42536 15.1189 2.56164C16.5932 1.69792 18.2695 1.23882 19.9782 1.23076C21.687 1.2227 23.3675 1.66598 24.8499 2.51575C26.3324 3.36553 27.5642 4.59169 28.4207 6.07023C29.2773 7.54877 29.7282 9.22727 29.728 10.936C29.7294 12.6721 29.2599 14.3762 28.3695 15.8666C27.4792 17.3571 26.2013 18.5782 24.672 19.4C23.2374 20.1789 21.6324 20.5911 20 20.6ZM20 2.848C18.1931 2.81275 16.4268 3.38547 14.9844 4.47426C13.542 5.56306 12.5071 7.10481 12.0458 8.85215C11.5846 10.5995 11.7236 12.4511 12.4406 14.11C13.1577 15.7689 14.4112 17.1388 16 18C17.2096 18.6561 18.5639 18.9997 19.94 18.9997C21.3161 18.9997 22.6704 18.6561 23.88 18C25.459 17.1433 26.7068 15.784 27.4254 14.1375C28.1439 12.491 28.2922 10.6518 27.8465 8.91151C27.4009 7.17122 26.3869 5.62957 24.9654 4.53112C23.544 3.43266 21.7964 2.8403 20 2.848Z" fill="black"/>
</svg>
