<svg width="40" height="40" viewBox="0 0 40 40" fill="none" xmlns="http://www.w3.org/2000/svg">
<g clip-path="url(#clip0_101_3)">
<path d="M15.3692 23.2668L11 23.4608C8.073 23.4543 5.663 21.3783 5.512 18.7338C5.5055 18.6088 5.5 18.4933 5.5 18.3773C5.5 15.1153 7.8135 13.9028 9.1755 13.4723C9.1665 13.3283 9.162 13.1828 9.162 13.0348C9.162 10.3598 11.0405 7.59077 13.5315 6.59427C16.435 5.42227 19.514 6.00527 21.763 8.15327C22.3565 8.71327 23.1155 9.55027 23.6475 10.5708C24.2155 10.0718 24.857 9.82727 25.5915 9.82727C27.043 9.82727 28.67 10.9953 28.9655 13.5483C31.975 14.2358 33.5 15.8873 33.5 18.4608C33.5 21.1743 30.779 22.8073 27.9705 23.2668M10.212 13.8338V13.8358V13.8378M34.7335 31.0098L34.557 33.3078C34.537 33.5698 34.318 33.7693 34.059 33.7693C34.0475 33.7693 34.0365 33.7693 34.025 33.7683L31.3735 33.5913C31.252 33.5833 31.1385 33.5318 31.053 33.4463L30.139 32.5318H28.225C27.9485 32.5318 27.725 32.3083 27.725 32.0318V30.1178L27.3105 29.7038H25.396C25.12 29.7038 24.896 29.4798 24.896 29.2038V27.2893L24.06 26.4528C21.273 27.6958 17.9705 26.7248 16.247 24.1033C14.948 22.1273 14.8955 19.5533 16.1125 17.5458C17.1405 15.8508 18.8325 14.7458 20.7535 14.5138C22.6745 14.2828 24.56 14.9323 25.9265 16.2988C27.753 18.1253 28.268 20.9418 27.2375 23.2668L34.5885 30.6178C34.6915 30.7213 34.745 30.8643 34.7335 31.0098ZM23.052 19.0813C23.4775 19.5063 23.7115 20.0713 23.7115 20.6728C23.7115 21.2733 23.4775 21.8383 23.052 22.2633C22.6135 22.7018 22.0375 22.9213 21.461 22.9213C20.885 22.9213 20.309 22.7023 19.8705 22.2633C18.9935 21.3858 18.9935 19.9583 19.8705 19.0813C20.295 18.6563 20.86 18.4223 21.461 18.4223C22.0625 18.4223 22.627 18.6563 23.052 19.0813Z" stroke="black" stroke-width="1.5"/>
</g>
<defs>
<clipPath id="clip0_101_3">
<rect width="40" height="40" fill="white"/>
</clipPath>
</defs>
</svg>
