<?xml version="1.0" standalone="no"?>
<!DOCTYPE svg PUBLIC "-//W3C//DTD SVG 20010904//EN"
 "http://www.w3.org/TR/2001/REC-SVG-20010904/DTD/svg10.dtd">
<svg version="1.0" xmlns="http://www.w3.org/2000/svg"
 width="226.000000pt" height="226.000000pt" viewBox="0 0 226.000000 226.000000"
 preserveAspectRatio="xMidYMid meet">

<g transform="translate(0.000000,226.000000) scale(0.100000,-0.100000)"
fill="#af1834" stroke="none">
<path d="M900 2230 c-491 -105 -847 -506 -890 -1002 -29 -341 96 -670 345
-907 433 -411 1108 -412 1539 -1 43 41 98 100 122 131 171 222 254 512 225
788 -52 499 -406 892 -892 991 -127 26 -328 26 -449 0z m370 -202 c276 -52
509 -274 586 -559 24 -88 24 -281 1 -369 -66 -246 -246 -446 -476 -530 -273
-99 -569 -42 -776 152 -171 159 -248 336 -248 563 0 297 159 550 429 684 147
73 308 92 484 59z"/>
<path d="M945 1811 c-214 -62 -366 -229 -410 -450 -72 -351 199 -682 560 -684
170 0 293 50 415 173 76 75 132 167 146 239 l7 31 -224 0 -224 0 -27 -34 c-41
-51 -124 -88 -198 -88 -218 0 -339 255 -201 423 114 138 336 119 427 -36 l26
-45 215 0 216 0 -7 43 c-4 23 -25 80 -47 126 -71 149 -210 263 -374 306 -79
20 -223 18 -300 -4z"/>
</g>
</svg>
