<svg width="20" height="20" viewBox="0 0 20 20" fill="none" xmlns="http://www.w3.org/2000/svg">
<g id="basil:server-outline">
<path id="Vector" d="M5 6.25008C5 6.02907 5.0878 5.81711 5.24408 5.66083C5.40036 5.50455 5.61232 5.41675 5.83333 5.41675C6.05435 5.41675 6.26631 5.50455 6.42259 5.66083C6.57887 5.81711 6.66667 6.02907 6.66667 6.25008C6.66667 6.4711 6.57887 6.68306 6.42259 6.83934C6.26631 6.99562 6.05435 7.08341 5.83333 7.08341C5.61232 7.08341 5.40036 6.99562 5.24408 6.83934C5.0878 6.68306 5 6.4711 5 6.25008ZM7.5 6.25008C7.5 6.02907 7.5878 5.81711 7.74408 5.66083C7.90036 5.50455 8.11232 5.41675 8.33333 5.41675C8.55435 5.41675 8.76631 5.50455 8.92259 5.66083C9.07887 5.81711 9.16667 6.02907 9.16667 6.25008C9.16667 6.4711 9.07887 6.68306 8.92259 6.83934C8.76631 6.99562 8.55435 7.08341 8.33333 7.08341C8.11232 7.08341 7.90036 6.99562 7.74408 6.83934C7.5878 6.68306 7.5 6.4711 7.5 6.25008ZM5.83333 11.2501C5.61232 11.2501 5.40036 11.3379 5.24408 11.4942C5.0878 11.6504 5 11.8624 5 12.0834C5 12.3044 5.0878 12.5164 5.24408 12.6727C5.40036 12.829 5.61232 12.9167 5.83333 12.9167C6.05435 12.9167 6.26631 12.829 6.42259 12.6727C6.57887 12.5164 6.66667 12.3044 6.66667 12.0834C6.66667 11.8624 6.57887 11.6504 6.42259 11.4942C6.26631 11.3379 6.05435 11.2501 5.83333 11.2501ZM8.33333 11.2501C8.11232 11.2501 7.90036 11.3379 7.74408 11.4942C7.5878 11.6504 7.5 11.8624 7.5 12.0834C7.5 12.3044 7.5878 12.5164 7.74408 12.6727C7.90036 12.829 8.11232 12.9167 8.33333 12.9167C8.55435 12.9167 8.76631 12.829 8.92259 12.6727C9.07887 12.5164 9.16667 12.3044 9.16667 12.0834C9.16667 11.8624 9.07887 11.6504 8.92259 11.4942C8.76631 11.3379 8.55435 11.2501 8.33333 11.2501Z" fill="black"/>
<path id="Vector_2" fill-rule="evenodd" clip-rule="evenodd" d="M4.95573 2.70825C4.34794 2.70825 3.76505 2.94969 3.33528 3.37947C2.90551 3.80924 2.66406 4.39213 2.66406 4.99992V7.49992C2.66406 8.15659 2.94073 8.74909 3.38323 9.16659C3.15586 9.38053 2.97474 9.63879 2.85105 9.92544C2.72736 10.2121 2.66372 10.5211 2.66406 10.8333V13.3333C2.66406 13.941 2.90551 14.5239 3.33528 14.9537C3.76505 15.3835 4.34794 15.6249 4.95573 15.6249H9.3749V16.8749H4.16656C4.0008 16.8749 3.84183 16.9408 3.72462 17.058C3.60741 17.1752 3.54156 17.3342 3.54156 17.4999C3.54156 17.6657 3.60741 17.8247 3.72462 17.9419C3.84183 18.0591 4.0008 18.1249 4.16656 18.1249H15.8332C15.999 18.1249 16.158 18.0591 16.2752 17.9419C16.3924 17.8247 16.4582 17.6657 16.4582 17.4999C16.4582 17.3342 16.3924 17.1752 16.2752 17.058C16.158 16.9408 15.999 16.8749 15.8332 16.8749H10.6249V15.6249H14.9557C15.2567 15.6249 15.5547 15.5656 15.8327 15.4505C16.1108 15.3353 16.3634 15.1665 16.5762 14.9537C16.789 14.7409 16.9578 14.4883 17.073 14.2102C17.1881 13.9322 17.2474 13.6342 17.2474 13.3333V10.8333C17.2474 10.1766 16.9716 9.58409 16.5291 9.16659C16.7562 8.95254 16.9372 8.69424 17.0607 8.4076C17.1843 8.12096 17.2478 7.81205 17.2474 7.49992V4.99992C17.2474 4.69897 17.1881 4.40097 17.073 4.12294C16.9578 3.8449 16.789 3.59227 16.5762 3.37947C16.3634 3.16666 16.1108 2.99786 15.8327 2.88269C15.5547 2.76753 15.2567 2.70825 14.9557 2.70825H4.95573ZM4.95573 8.54159H14.9557C15.5307 8.54159 15.9974 8.07492 15.9974 7.49992V4.99992C15.9974 4.42492 15.5307 3.95825 14.9557 3.95825H4.95573C4.38073 3.95825 3.91406 4.42492 3.91406 4.99992V7.49992C3.91406 8.07492 4.38073 8.54159 4.95573 8.54159ZM4.95573 9.79159C4.38073 9.79159 3.91406 10.2583 3.91406 10.8333V13.3333C3.91406 13.9083 4.38073 14.3749 4.95573 14.3749H14.9557C15.5307 14.3749 15.9974 13.9083 15.9974 13.3333V10.8333C15.9974 10.2583 15.5307 9.79159 14.9557 9.79159H4.95573Z" fill="black"/>
</g>
</svg>
