<svg width="23" height="23" viewBox="0 0 23 23" fill="none" xmlns="http://www.w3.org/2000/svg">
<g id="Group 2">
<path id="Vector" d="M17.8889 10.2222C18.3233 10.2222 18.745 10.2733 19.1666 10.3372V4.17833L9.58332 0L0 4.17833V10.4522C0 16.2533 4.08888 21.6839 9.58332 23C10.2861 22.8339 10.9633 22.5911 11.6278 22.2972C10.7461 21.045 10.2222 19.5244 10.2222 17.8889C10.2222 13.6594 13.6594 10.2222 17.8889 10.2222Z" fill="#5686E1"/>
<path id="Vector_2" d="M17.8884 12.7778C15.0646 12.7778 12.7773 15.0651 12.7773 17.8889C12.7773 20.7128 15.0646 23 17.8884 23C20.7123 23 22.9996 20.7128 22.9996 17.8889C22.9996 15.0651 20.7123 12.7778 17.8884 12.7778ZM17.8884 14.5412C18.6807 14.5412 19.3196 15.1928 19.3196 15.9723C19.3196 16.7517 18.6679 17.4034 17.8884 17.4034C17.109 17.4034 16.4573 16.7517 16.4573 15.9723C16.4573 15.1928 17.0962 14.5412 17.8884 14.5412ZM17.8884 21.4028C16.7001 21.4028 15.6651 20.815 15.0262 19.9078C15.0901 18.9878 16.9557 18.5278 17.8884 18.5278C18.8212 18.5278 20.6868 18.9878 20.7507 19.9078C20.1118 20.815 19.0768 21.4028 17.8884 21.4028Z" fill="#5686E1"/>
</g>
</svg>
