<svg width="12" height="11" viewBox="0 0 12 11" fill="none" xmlns="http://www.w3.org/2000/svg">
<path d="M6.00668 6.06577V4.6372M10.8924 9.08006C10.9972 9.27433 11.0256 9.50077 10.9719 9.71489C10.9182 9.92901 10.7864 10.1153 10.6024 10.2372C10.4789 10.3124 10.337 10.3519 10.1924 10.3515H1.80668C1.66181 10.3517 1.51971 10.3117 1.39615 10.2361C1.27259 10.1604 1.17239 10.052 1.10668 9.92291C1.03667 9.79348 1 9.64864 1 9.50148C1 9.35433 1.03667 9.20949 1.10668 9.08006L5.32097 1.48006C5.37887 1.33813 5.47773 1.21667 5.60495 1.13116C5.73217 1.04566 5.88197 1 6.03526 1C6.18854 1 6.33834 1.04566 6.46556 1.13116C6.59278 1.21667 6.69165 1.33813 6.74954 1.48006L10.8924 9.08006Z" stroke="#5E6FEC" stroke-linecap="round" stroke-linejoin="round"/>
<path d="M5.99954 8.3872C5.95218 8.3872 5.90676 8.36839 5.87327 8.3349C5.83978 8.30141 5.82097 8.25599 5.82097 8.20863C5.82097 8.16127 5.83978 8.11585 5.87327 8.08236C5.90676 8.04887 5.95218 8.03006 5.99954 8.03006M5.99954 8.3872C6.0469 8.3872 6.09232 8.36839 6.12581 8.3349C6.1593 8.30141 6.17811 8.25599 6.17811 8.20863C6.17811 8.16127 6.1593 8.11585 6.12581 8.08236C6.09232 8.04887 6.0469 8.03006 5.99954 8.03006" stroke="#5E6FEC" stroke-linecap="round" stroke-linejoin="round"/>
</svg>
