<svg width="20" height="20" viewBox="0 0 20 20" fill="none" xmlns="http://www.w3.org/2000/svg">
<g id="carbon:network-4">
<path id="Vector" d="M13.125 17.5C13.8154 17.5 14.375 16.9404 14.375 16.25C14.375 15.5596 13.8154 15 13.125 15C12.4346 15 11.875 15.5596 11.875 16.25C11.875 16.9404 12.4346 17.5 13.125 17.5Z" fill="black"/>
<path id="Vector_2" d="M13.125 5C13.8154 5 14.375 4.44036 14.375 3.75C14.375 3.05964 13.8154 2.5 13.125 2.5C12.4346 2.5 11.875 3.05964 11.875 3.75C11.875 4.44036 12.4346 5 13.125 5Z" fill="black"/>
<path id="Vector_3" d="M2.5 11.25C3.19036 11.25 3.75 10.6904 3.75 10C3.75 9.30964 3.19036 8.75 2.5 8.75C1.80964 8.75 1.25 9.30964 1.25 10C1.25 10.6904 1.80964 11.25 2.5 11.25Z" fill="black"/>
<path id="Vector_4" d="M17.5 7.5C16.9473 7.50165 16.4107 7.68661 15.9743 8.02592C15.538 8.36522 15.2265 8.8397 15.0888 9.375H12.4113C12.3227 9.02253 12.1578 8.69384 11.9281 8.41221C11.6985 8.13057 11.4097 7.90288 11.0822 7.74527C10.7548 7.58766 10.3966 7.50397 10.0333 7.50014C9.66986 7.49632 9.31008 7.57244 8.97938 7.72313L6.99375 5.24188C7.32037 4.81294 7.49812 4.28914 7.5 3.75C7.5 3.25555 7.35338 2.7722 7.07868 2.36108C6.80397 1.94995 6.41353 1.62952 5.95671 1.4403C5.49989 1.25108 4.99723 1.20157 4.51228 1.29804C4.02732 1.3945 3.58187 1.6326 3.23223 1.98223C2.8826 2.33187 2.6445 2.77732 2.54804 3.26228C2.45157 3.74723 2.50108 4.24989 2.6903 4.70671C2.87952 5.16352 3.19995 5.55397 3.61108 5.82868C4.0222 6.10338 4.50555 6.25 5 6.25C5.35242 6.24918 5.7006 6.17311 6.02125 6.02688L8.00625 8.50813C7.67813 8.93625 7.5003 9.4606 7.5003 10C7.5003 10.5394 7.67813 11.0638 8.00625 11.4919L6.02125 13.9731C5.7006 13.8269 5.35242 13.7508 5 13.75C4.50555 13.75 4.0222 13.8966 3.61108 14.1713C3.19995 14.446 2.87952 14.8365 2.6903 15.2933C2.50108 15.7501 2.45157 16.2528 2.54804 16.7377C2.6445 17.2227 2.8826 17.6681 3.23223 18.0178C3.58187 18.3674 4.02732 18.6055 4.51228 18.702C4.99723 18.7984 5.49989 18.7489 5.95671 18.5597C6.41353 18.3705 6.80397 18.05 7.07868 17.6389C7.35338 17.2278 7.5 16.7445 7.5 16.25C7.49816 15.7109 7.32041 15.187 6.99375 14.7581L8.97875 12.2769C9.30948 12.4277 9.66933 12.5039 10.0328 12.5001C10.3963 12.4963 10.7545 12.4127 11.082 12.2551C11.4095 12.0974 11.6984 11.8697 11.9281 11.588C12.1578 11.3063 12.3228 10.9775 12.4113 10.625H15.0888C15.2064 11.0766 15.4484 11.4861 15.7872 11.8071C16.1259 12.1281 16.5479 12.3477 17.0052 12.4409C17.4624 12.5342 17.9367 12.4973 18.3741 12.3346C18.8115 12.1718 19.1944 11.8897 19.4795 11.5202C19.7646 11.1507 19.9404 10.7087 19.9869 10.2443C20.0334 9.77995 19.9488 9.31186 19.7426 8.89318C19.5365 8.4745 19.217 8.12201 18.8206 7.87575C18.4242 7.62948 17.9667 7.49931 17.5 7.5ZM3.75 3.75C3.75 3.50277 3.82331 3.2611 3.96066 3.05554C4.09802 2.84998 4.29324 2.68976 4.52165 2.59515C4.75005 2.50054 5.00139 2.47579 5.24386 2.52402C5.48634 2.57225 5.70907 2.6913 5.88388 2.86612C6.0587 3.04093 6.17775 3.26366 6.22598 3.50614C6.27421 3.74861 6.24946 3.99995 6.15485 4.22836C6.06024 4.45676 5.90003 4.65199 5.69446 4.78934C5.4889 4.92669 5.24723 5 5 5C4.66858 4.99967 4.35083 4.86787 4.11648 4.63352C3.88213 4.39917 3.75033 4.08142 3.75 3.75ZM5 17.5C4.75277 17.5 4.5111 17.4267 4.30554 17.2893C4.09998 17.152 3.93976 16.9568 3.84515 16.7284C3.75054 16.4999 3.72579 16.2486 3.77402 16.0061C3.82225 15.7637 3.9413 15.5409 4.11612 15.3661C4.29093 15.1913 4.51366 15.0723 4.75614 15.024C4.99861 14.9758 5.24995 15.0005 5.47836 15.0952C5.70676 15.1898 5.90199 15.35 6.03934 15.5555C6.17669 15.7611 6.25 16.0028 6.25 16.25C6.24967 16.5814 6.11787 16.8992 5.88352 17.1335C5.64917 17.3679 5.33142 17.4997 5 17.5ZM10 11.25C9.75277 11.25 9.5111 11.1767 9.30554 11.0393C9.09998 10.902 8.93976 10.7068 8.84515 10.4784C8.75054 10.2499 8.72579 9.99861 8.77402 9.75614C8.82225 9.51366 8.9413 9.29093 9.11612 9.11612C9.29093 8.9413 9.51366 8.82225 9.75614 8.77402C9.99861 8.72579 10.2499 8.75054 10.4784 8.84515C10.7068 8.93976 10.902 9.09998 11.0393 9.30554C11.1767 9.5111 11.25 9.75277 11.25 10C11.2497 10.3314 11.1179 10.6492 10.8835 10.8835C10.6492 11.1179 10.3314 11.2497 10 11.25ZM17.5 11.25C17.2528 11.25 17.0111 11.1767 16.8055 11.0393C16.6 10.902 16.4398 10.7068 16.3452 10.4784C16.2505 10.2499 16.2258 9.99861 16.274 9.75614C16.3223 9.51366 16.4413 9.29093 16.6161 9.11612C16.7909 8.9413 17.0137 8.82225 17.2561 8.77402C17.4986 8.72579 17.7499 8.75054 17.9784 8.84515C18.2068 8.93976 18.402 9.09998 18.5393 9.30554C18.6767 9.5111 18.75 9.75277 18.75 10C18.7497 10.3314 18.6179 10.6492 18.3835 10.8835C18.1492 11.1179 17.8314 11.2497 17.5 11.25Z" fill="black"/>
</g>
</svg>
