<svg width="64" height="64" viewBox="0 0 64 64" fill="none" xmlns="http://www.w3.org/2000/svg">
<path d="M49.817 38C48.1711 33.0168 45.0512 28.6506 40.87 25.479L35.523 21.423C34.5097 20.6536 33.2723 20.2371 32 20.2371C30.7277 20.2371 29.4903 20.6536 28.477 21.423L23.13 25.479C19.9431 27.8968 17.359 31.0192 15.5799 34.602C13.8008 38.1849 12.875 42.1308 12.875 46.131V46.713C12.8749 48.0639 13.1409 49.4017 13.6578 50.6498C14.1747 51.898 14.9324 53.032 15.8877 53.9873C16.843 54.9426 17.977 55.7003 19.2252 56.2172C20.4733 56.7341 21.8111 57.0001 23.162 57H36" stroke="#5E6FEC" stroke-width="3" stroke-miterlimit="2" stroke-linecap="round" stroke-linejoin="round"/>
<path d="M27 22.543L24.713 12.219C24.6197 11.7994 24.6112 11.3654 24.688 10.9424C24.7647 10.5195 24.9252 10.1161 25.1599 9.75599C25.3946 9.39588 25.6989 9.08628 26.0549 8.84536C26.4109 8.60444 26.8114 8.43704 27.233 8.353L27.584 8.283C28.0294 8.19398 28.4887 8.1999 28.9317 8.30036C29.3747 8.40081 29.7915 8.59355 30.155 8.866L31.812 10.109C32.1848 10.3883 32.6135 10.5837 33.0688 10.6819C33.5241 10.7801 33.9953 10.7788 34.45 10.678L35.918 10.352C36.4956 10.224 37.0972 10.257 37.6572 10.4476C38.2173 10.6381 38.7143 10.9788 39.0939 11.4324C39.4736 11.8861 39.7214 12.4353 39.8103 13.0201C39.8992 13.605 39.8258 14.203 39.598 14.749L36.5 22.164M25.1599 53C25.1599 53 18.901 53.918 17 49M34 36.5C33.7443 36.1591 33.4057 35.8892 33.0164 35.7159C32.6271 35.5427 32.1999 35.4718 31.7755 35.5101C31.3511 35.5484 30.9435 35.6945 30.5914 35.9346C30.2394 36.1747 29.9545 36.5008 29.7639 36.882C29.5734 37.2631 29.4834 37.6867 29.5025 38.1124C29.5217 38.5381 29.6493 38.9518 29.8734 39.3143C30.0974 39.6768 30.4104 39.976 30.7826 40.1836C31.1548 40.3911 31.5739 40.5 32 40.5C32.663 40.5 33.2989 40.7634 33.7678 41.2322C34.2366 41.7011 34.5 42.337 34.5 43C34.5 43.663 34.2366 44.2989 33.7678 44.7678C33.2989 45.2366 32.663 45.5 32 45.5M32 45.5C31.6119 45.5 31.2291 45.4096 30.882 45.2361C30.5348 45.0625 30.2329 44.8105 30 44.5M32 45.5V47.5M32 35.5V33.5M54 41C54 40.2044 53.6839 39.4413 53.1213 38.8787C52.5587 38.3161 51.7956 38 51 38H41C40.2044 38 39.4413 38.3161 38.8787 38.8787C38.3161 39.4413 38 40.2044 38 41V48.051C37.9999 49.4964 38.4175 50.9111 39.2026 52.1248C39.9876 53.3384 41.1066 54.2994 42.425 54.892L46 56.5L49.575 54.892C50.8934 54.2994 52.0124 53.3384 52.7974 52.1248C53.5825 50.9111 54.0001 49.4964 54 48.051V41Z" stroke="#5E6FEC" stroke-width="3" stroke-miterlimit="2" stroke-linecap="round" stroke-linejoin="round"/>
<path d="M42.75 46.748L45.25 48.748L49.25 45.248" stroke="#5E6FEC" stroke-width="3" stroke-miterlimit="2" stroke-linecap="round" stroke-linejoin="round"/>
</svg>
