<svg width="20" height="20" viewBox="0 0 20 20" fill="none" xmlns="http://www.w3.org/2000/svg">
<g id="streamline:threat-folder" clip-path="url(#clip0_2260_5590)">
<g id="Group">
<path id="Vector" d="M5.71387 17.1428H2.14244C1.76356 17.1428 1.4002 16.9923 1.13229 16.7244C0.864377 16.4565 0.713867 16.0931 0.713867 15.7142V2.1428C0.713867 1.76392 0.864377 1.40056 1.13229 1.13265C1.4002 0.864739 1.76356 0.714229 2.14244 0.714229H7.41387C7.7402 0.704722 8.05995 0.807277 8.31988 1.00482C8.5798 1.20236 8.76422 1.48298 8.84244 1.79994L9.24244 3.57137H17.8139C18.1927 3.57137 18.5561 3.72188 18.824 3.98979C19.0919 4.2577 19.2424 4.62106 19.2424 4.99994V10.7142" stroke="#5E6FEC" stroke-linecap="round" stroke-linejoin="round"/>
<path id="Vector_2" d="M14.285 15V13.5714M19.1707 18.0143C19.2755 18.2085 19.3039 18.435 19.2502 18.6491C19.1966 18.8632 19.0648 19.0495 18.8807 19.1714C18.7572 19.2466 18.6153 19.2861 18.4707 19.2857H10.085C9.94013 19.2859 9.79803 19.2459 9.67447 19.1703C9.55091 19.0946 9.45072 18.9862 9.38501 18.8571C9.31499 18.7277 9.27832 18.5828 9.27832 18.4357C9.27832 18.2885 9.31499 18.1437 9.38501 18.0143L13.5993 10.4143C13.6572 10.2723 13.7561 10.1509 13.8833 10.0654C14.0105 9.97987 14.1603 9.9342 14.3136 9.9342C14.4669 9.9342 14.6167 9.97987 14.7439 10.0654C14.8711 10.1509 14.97 10.2723 15.0279 10.4143L19.1707 18.0143Z" stroke="#5E6FEC" stroke-linecap="round" stroke-linejoin="round"/>
<path id="Vector_3" d="M14.2782 17.3214C14.2308 17.3214 14.1854 17.3026 14.1519 17.2691C14.1184 17.2356 14.0996 17.1902 14.0996 17.1428C14.0996 17.0954 14.1184 17.05 14.1519 17.0165C14.1854 16.983 14.2308 16.9642 14.2782 16.9642M14.2782 17.3214C14.3255 17.3214 14.371 17.3026 14.4045 17.2691C14.4379 17.2356 14.4568 17.1902 14.4568 17.1428C14.4568 17.0954 14.4379 17.05 14.4045 17.0165C14.371 16.983 14.3255 16.9642 14.2782 16.9642" stroke="#5E6FEC" stroke-linecap="round" stroke-linejoin="round"/>
</g>
</g>
<defs>
<clipPath id="clip0_2260_5590">
<rect width="20" height="20" fill="white"/>
</clipPath>
</defs>
</svg>
