<svg width="20" height="19" viewBox="0 0 20 19" fill="none" xmlns="http://www.w3.org/2000/svg">
<path d="M18.9722 17.9264L2.38782 17.8528C2.01975 17.8528 1.66675 17.6978 1.40648 17.4217C1.14622 17.1457 1 16.7714 1 16.381V2.39884C1 2.0085 1.14622 1.63414 1.40648 1.35812C1.66675 1.0821 2.01975 0.927036 2.38782 0.927036H7.50887C7.82589 0.917241 8.13652 1.0229 8.38903 1.22642C8.64154 1.42994 8.8207 1.71905 8.89668 2.04561L9.28527 3.87065H17.6122C17.9803 3.87065 18.3333 4.02572 18.5935 4.30173C18.8538 4.57775 19 4.95211 19 5.34246L18.9722 17.9264Z" stroke="#5E6FEC" stroke-linecap="round" stroke-linejoin="round"/>
</svg>
