<svg width="20" height="21" viewBox="0 0 20 21" fill="none" xmlns="http://www.w3.org/2000/svg">
<path id="Vector" d="M16.1538 14.3462C15.7692 14.3462 15.3846 14.1923 15.0769 13.8846L12.7692 11.5769C12.4615 11.2692 12.3077 10.8846 12.3077 10.5C12.3077 10.1154 12.4615 9.73077 12.7692 9.42308L15.0769 7.11539C15.3846 6.80769 15.7692 6.65385 16.1538 6.65385C16.5385 6.65385 16.9231 6.80769 17.2308 7.11539L19.5385 9.42308C19.8462 9.73077 20 10.1154 20 10.5C20 10.8846 19.8462 11.2692 19.5385 11.5769L17.2308 13.8846C16.9231 14.1923 16.5385 14.3462 16.1538 14.3462ZM16.1538 8.19231L13.8462 10.5L16.1538 12.8077L18.4615 10.5L16.1538 8.19231ZM10 8.19231C9.61539 8.19231 9.23077 8.03846 8.92308 7.73077L6.61539 5.42308C6.30769 5.11538 6.15385 4.73077 6.15385 4.34615C6.15385 3.96154 6.30769 3.57692 6.61539 3.26923L8.92308 0.961538C9.23077 0.653846 9.61539 0.5 10 0.5C10.3846 0.5 10.7692 0.653846 11.0769 0.961538L13.3846 3.26923C13.6923 3.57692 13.8462 3.96154 13.8462 4.34615C13.8462 4.73077 13.6923 5.11538 13.3846 5.42308L11.0769 7.73077C10.7692 8.03846 10.3846 8.19231 10 8.19231ZM10 2.03846L7.69231 4.34615L10 6.65385L12.3077 4.34615L10 2.03846ZM10 20.5C9.61539 20.5 9.23077 20.3462 8.92308 20.0385L6.61539 17.7308C6.30769 17.4231 6.15385 17.0385 6.15385 16.6538C6.15385 16.2692 6.30769 15.8846 6.61539 15.5769L8.92308 13.2692C9.23077 12.9615 9.61539 12.8077 10 12.8077C10.3846 12.8077 10.7692 12.9615 11.0769 13.2692L13.3846 15.5769C13.6923 15.8846 13.8462 16.2692 13.8462 16.6538C13.8462 17.0385 13.6923 17.4231 13.3846 17.7308L11.0769 20.0385C10.7692 20.3462 10.3846 20.5 10 20.5ZM10 14.3462L7.69231 16.6538L10 18.9615L12.3077 16.6538L10 14.3462ZM3.84615 14.3462C3.46154 14.3462 3.07692 14.1923 2.76923 13.8846L0.461538 11.5769C0.153846 11.2692 0 10.8846 0 10.5C0 10.1154 0.153846 9.73077 0.461538 9.42308L2.76923 7.11539C3.07692 6.80769 3.46154 6.65385 3.84615 6.65385C4.23077 6.65385 4.61538 6.80769 4.92308 7.11539L7.23077 9.42308C7.53846 9.73077 7.69231 10.1154 7.69231 10.5C7.69231 10.8846 7.53846 11.2692 7.23077 11.5769L4.92308 13.8846C4.61538 14.1923 4.23077 14.3462 3.84615 14.3462ZM3.84615 8.19231L1.53846 10.5L3.84615 12.8077L6.15385 10.5L3.84615 8.19231Z" fill="#5E6FEC"/>
</svg>
