<svg width="21" height="21" viewBox="0 0 21 21" fill="none" xmlns="http://www.w3.org/2000/svg">
<path id="Vector" d="M7.08125 4.06245C6.91052 4.06245 6.74678 4.13027 6.62605 4.251C6.50532 4.37173 6.4375 4.53547 6.4375 4.7062C6.4375 4.87693 6.50532 5.04067 6.62605 5.1614C6.74678 5.28213 6.91052 5.34995 7.08125 5.34995H13.5188C13.6895 5.34995 13.8532 5.28213 13.974 5.1614C14.0947 5.04067 14.1625 4.87693 14.1625 4.7062C14.1625 4.53547 14.0947 4.37173 13.974 4.251C13.8532 4.13027 13.6895 4.06245 13.5188 4.06245H7.08125ZM6.4375 13.7187C6.4375 13.548 6.50532 13.3842 6.62605 13.2635C6.74678 13.1428 6.91052 13.075 7.08125 13.075H13.5188C13.6895 13.075 13.8532 13.1428 13.974 13.2635C14.0947 13.3842 14.1625 13.548 14.1625 13.7187C14.1625 13.8894 14.0947 14.0532 13.974 14.1739C13.8532 14.2946 13.6895 14.3625 13.5188 14.3625H7.08125C6.91052 14.3625 6.74678 14.2946 6.62605 14.1739C6.50532 14.0532 6.4375 13.8894 6.4375 13.7187ZM7.08125 15.65C6.91052 15.65 6.74678 15.7178 6.62605 15.8385C6.50532 15.9592 6.4375 16.123 6.4375 16.2937C6.4375 16.4644 6.50532 16.6282 6.62605 16.7489C6.74678 16.8696 6.91052 16.9375 7.08125 16.9375H13.5188C13.6895 16.9375 13.8532 16.8696 13.974 16.7489C14.0947 16.6282 14.1625 16.4644 14.1625 16.2937C14.1625 16.123 14.0947 15.9592 13.974 15.8385C13.8532 15.7178 13.6895 15.65 13.5188 15.65H7.08125ZM3.8625 3.4187C3.8625 2.56504 4.20162 1.74633 4.80525 1.1427C5.40888 0.539068 6.22758 0.199951 7.08125 0.199951H13.5188C14.3724 0.199951 15.1911 0.539068 15.7948 1.1427C16.3984 1.74633 16.7375 2.56504 16.7375 3.4187V4.06245H18.025C18.7079 4.06245 19.3629 4.33375 19.8458 4.81665C20.3287 5.29956 20.6 5.95452 20.6 6.63745V15.65C20.6 16.3329 20.3287 16.9878 19.8458 17.4708C19.3629 17.9537 18.7079 18.225 18.025 18.225H16.6731C16.5247 18.952 16.1297 19.6054 15.5549 20.0746C14.9801 20.5439 14.2608 20.8001 13.5188 20.8H7.08125C6.33923 20.8001 5.61995 20.5439 5.04513 20.0746C4.47032 19.6054 4.07528 18.952 3.92688 18.225H2.575C1.89207 18.225 1.23711 17.9537 0.7542 17.4708C0.271294 16.9878 0 16.3329 0 15.65V6.63745C0 5.95452 0.271294 5.29956 0.7542 4.81665C1.23711 4.33375 1.89207 4.06245 2.575 4.06245H3.8625V3.4187ZM16.7375 16.9375H18.025C18.3665 16.9375 18.6939 16.8018 18.9354 16.5604C19.1769 16.3189 19.3125 15.9914 19.3125 15.65V6.63745C19.3125 6.29599 19.1769 5.9685 18.9354 5.72705C18.6939 5.4856 18.3665 5.34995 18.025 5.34995H16.7375V16.9375ZM3.8625 5.34995H2.575C2.23353 5.34995 1.90605 5.4856 1.6646 5.72705C1.42315 5.9685 1.2875 6.29599 1.2875 6.63745V15.65C1.2875 15.9914 1.42315 16.3189 1.6646 16.5604C1.90605 16.8018 2.23353 16.9375 2.575 16.9375H3.8625V5.34995ZM7.08125 1.48745C6.56905 1.48745 6.07783 1.69092 5.71565 2.0531C5.35347 2.41528 5.15 2.9065 5.15 3.4187V17.5812C5.15 18.0934 5.35347 18.5846 5.71565 18.9468C6.07783 19.309 6.56905 19.5125 7.08125 19.5125H13.5188C14.0309 19.5125 14.5222 19.309 14.8844 18.9468C15.2465 18.5846 15.45 18.0934 15.45 17.5812V3.4187C15.45 2.9065 15.2465 2.41528 14.8844 2.0531C14.5222 1.69092 14.0309 1.48745 13.5188 1.48745H7.08125Z" fill="#5E6FEC"/>
</svg>
